<svg width="329" height="51" viewBox="0 0 329 51" fill="none" xmlns="http://www.w3.org/2000/svg">
<g filter="url(#filter0_b_1_199)">
<rect y="0.313477" width="328.751" height="50" rx="10" fill="url(#paint0_linear_1_199)" fill-opacity="0.28"/>
<rect x="0.508902" y="0.822379" width="327.733" height="48.9822" rx="9.4911" stroke="#454545" stroke-opacity="0.04" stroke-width="1.0178"/>
<path d="M40.4441 22V18.6313L40.7332 19.4106L36.9497 13.2012H38.2947L41.4748 18.4428H40.7458L43.9385 13.2012H45.1829L41.412 19.4106L41.6885 18.6313V22H40.4441ZM48.3868 22.0754C47.7164 22.0754 47.1214 21.9288 46.6019 21.6355C46.0824 21.3422 45.6717 20.94 45.3701 20.4288C45.0684 19.9092 44.9176 19.3226 44.9176 18.669C44.9176 18.007 45.0684 17.4204 45.3701 16.9093C45.6717 16.3981 46.0824 16 46.6019 15.7151C47.1214 15.4218 47.7164 15.2752 48.3868 15.2752C49.0488 15.2752 49.6396 15.4218 50.1591 15.7151C50.6871 16 51.0977 16.3981 51.391 16.9093C51.6926 17.412 51.8435 17.9986 51.8435 18.669C51.8435 19.331 51.6926 19.9176 51.391 20.4288C51.0977 20.94 50.6871 21.3422 50.1591 21.6355C49.6396 21.9288 49.0488 22.0754 48.3868 22.0754ZM48.3868 21.0196C48.8142 21.0196 49.1955 20.9232 49.5306 20.7305C49.8742 20.5377 50.1424 20.2654 50.3351 19.9134C50.5278 19.5531 50.6242 19.1383 50.6242 18.669C50.6242 18.1914 50.5278 17.7808 50.3351 17.4372C50.1424 17.0852 49.8742 16.8129 49.5306 16.6202C49.1955 16.4274 48.8142 16.3311 48.3868 16.3311C47.9594 16.3311 47.5782 16.4274 47.243 16.6202C46.9078 16.8129 46.6396 17.0852 46.4385 17.4372C46.2374 17.7808 46.1368 18.1914 46.1368 18.669C46.1368 19.1383 46.2374 19.5531 46.4385 19.9134C46.6396 20.2654 46.9078 20.5377 47.243 20.7305C47.5782 20.9232 47.9594 21.0196 48.3868 21.0196ZM56.3154 22.0754C55.7455 22.0754 55.2427 21.9707 54.807 21.7612C54.3796 21.5517 54.0444 21.2332 53.8014 20.8059C53.5668 20.3701 53.4495 19.8254 53.4495 19.1718V15.338H54.6562V19.0335C54.6562 19.6872 54.8112 20.1774 55.1212 20.5042C55.4397 20.831 55.8838 20.9944 56.4536 20.9944C56.8726 20.9944 57.2371 20.9106 57.5472 20.743C57.8572 20.5671 58.0961 20.3157 58.2637 19.9888C58.4313 19.6536 58.5151 19.2514 58.5151 18.7821V15.338H59.7218V22H58.5779V20.2025L58.7665 20.6802C58.5486 21.1243 58.2218 21.4679 57.786 21.7109C57.3503 21.9539 56.86 22.0754 56.3154 22.0754ZM61.7424 16.595L61.667 13.2012H62.7229L62.6349 16.595H61.7424ZM66.4053 22L63.4891 15.338H64.7461L67.3355 21.3715H66.7321L69.3718 15.338H70.5533L67.6372 22H66.4053ZM74.4618 22.0754C73.7495 22.0754 73.1211 21.9288 72.5764 21.6355C72.0401 21.3422 71.6211 20.94 71.3194 20.4288C71.0261 19.9176 70.8795 19.331 70.8795 18.669C70.8795 18.007 71.0219 17.4204 71.3068 16.9093C71.6001 16.3981 71.9982 16 72.501 15.7151C73.0121 15.4218 73.5861 15.2752 74.223 15.2752C74.8683 15.2752 75.4381 15.4176 75.9325 15.7026C76.4269 15.9875 76.8124 16.3897 77.0889 16.9093C77.3738 17.4204 77.5163 18.0196 77.5163 18.7067C77.5163 18.757 77.5121 18.8157 77.5037 18.8827C77.5037 18.9497 77.4995 19.0126 77.4911 19.0713H71.8222V18.2039H76.8626L76.3724 18.5056C76.3808 18.0782 76.2928 17.697 76.1085 17.3618C75.9241 17.0266 75.6685 16.7668 75.3417 16.5824C75.0233 16.3897 74.6504 16.2933 74.223 16.2933C73.804 16.2933 73.4311 16.3897 73.1043 16.5824C72.7775 16.7668 72.5219 17.0308 72.3375 17.3743C72.1532 17.7095 72.061 18.095 72.061 18.5308V18.7319C72.061 19.176 72.1616 19.574 72.3627 19.926C72.5722 20.2696 72.8613 20.5377 73.23 20.7305C73.5987 20.9232 74.0219 21.0196 74.4995 21.0196C74.8934 21.0196 75.2495 20.9525 75.568 20.8184C75.8948 20.6844 76.1797 20.4833 76.4227 20.2151L77.0889 20.9944C76.7872 21.3464 76.4101 21.6145 75.9576 21.7989C75.5135 21.9832 75.0149 22.0754 74.4618 22.0754ZM86.0996 22.0754C85.5298 22.0754 85.0144 21.9497 84.5536 21.6983C84.101 21.4386 83.7407 21.0573 83.4726 20.5545C83.2128 20.0517 83.0829 19.4232 83.0829 18.669C83.0829 17.9148 83.217 17.2864 83.4851 16.7836C83.7617 16.2808 84.1262 15.9037 84.5787 15.6523C85.0396 15.4009 85.5466 15.2752 86.0996 15.2752C86.7533 15.2752 87.3315 15.4176 87.8343 15.7026C88.337 15.9875 88.7351 16.3855 89.0284 16.8967C89.3217 17.3995 89.4683 17.9903 89.4683 18.669C89.4683 19.3478 89.3217 19.9428 89.0284 20.4539C88.7351 20.9651 88.337 21.3631 87.8343 21.648C87.3315 21.933 86.7533 22.0754 86.0996 22.0754ZM82.5675 22V12.6733H83.7742V17.1104L83.6485 18.6565L83.724 20.2025V22H82.5675ZM85.9991 21.0196C86.4264 21.0196 86.8077 20.9232 87.1429 20.7305C87.4865 20.5377 87.7547 20.2654 87.9474 19.9134C88.1485 19.5531 88.2491 19.1383 88.2491 18.669C88.2491 18.1914 88.1485 17.7808 87.9474 17.4372C87.7547 17.0852 87.4865 16.8129 87.1429 16.6202C86.8077 16.4274 86.4264 16.3311 85.9991 16.3311C85.5801 16.3311 85.1988 16.4274 84.8552 16.6202C84.52 16.8129 84.2519 17.0852 84.0508 17.4372C83.858 17.7808 83.7617 18.1914 83.7617 18.669C83.7617 19.1383 83.858 19.5531 84.0508 19.9134C84.2519 20.2654 84.52 20.5377 84.8552 20.7305C85.1988 20.9232 85.5801 21.0196 85.9991 21.0196ZM93.9386 22.0754C93.3688 22.0754 92.866 21.9707 92.4303 21.7612C92.0029 21.5517 91.6677 21.2332 91.4247 20.8059C91.19 20.3701 91.0727 19.8254 91.0727 19.1718V15.338H92.2794V19.0335C92.2794 19.6872 92.4345 20.1774 92.7445 20.5042C93.0629 20.831 93.5071 20.9944 94.0769 20.9944C94.4959 20.9944 94.8604 20.9106 95.1705 20.743C95.4805 20.5671 95.7193 20.3157 95.8869 19.9888C96.0545 19.6536 96.1383 19.2514 96.1383 18.7821V15.338H97.345V22H96.2012V20.2025L96.3897 20.6802C96.1719 21.1243 95.845 21.4679 95.4093 21.7109C94.9735 21.9539 94.4833 22.0754 93.9386 22.0754ZM99.6422 22V15.338H100.799V17.1481L100.686 16.6956C100.87 16.2347 101.18 15.8827 101.616 15.6397C102.051 15.3967 102.588 15.2752 103.225 15.2752V16.4442C103.174 16.4358 103.124 16.4316 103.074 16.4316C103.032 16.4316 102.99 16.4316 102.948 16.4316C102.303 16.4316 101.792 16.6243 101.415 17.0098C101.037 17.3953 100.849 17.9525 100.849 18.6816V22H99.6422ZM108.269 15.2752C108.814 15.2752 109.291 15.3799 109.702 15.5894C110.121 15.7989 110.448 16.1174 110.683 16.5447C110.917 16.9721 111.034 17.5126 111.034 18.1662V22H109.828V18.3045C109.828 17.6593 109.669 17.1732 109.35 16.8464C109.04 16.5196 108.6 16.3562 108.03 16.3562C107.603 16.3562 107.23 16.44 106.912 16.6076C106.593 16.7752 106.346 17.0224 106.17 17.3492C106.002 17.676 105.919 18.0824 105.919 18.5685V22H104.712V15.338H105.868V17.1355L105.68 16.6579C105.898 16.2221 106.233 15.8827 106.685 15.6397C107.138 15.3967 107.666 15.2752 108.269 15.2752ZM116.234 22.0754C115.522 22.0754 114.893 21.9288 114.349 21.6355C113.812 21.3422 113.393 20.94 113.092 20.4288C112.798 19.9176 112.652 19.331 112.652 18.669C112.652 18.007 112.794 17.4204 113.079 16.9093C113.372 16.3981 113.77 16 114.273 15.7151C114.784 15.4218 115.358 15.2752 115.995 15.2752C116.641 15.2752 117.21 15.4176 117.705 15.7026C118.199 15.9875 118.585 16.3897 118.861 16.9093C119.146 17.4204 119.289 18.0196 119.289 18.7067C119.289 18.757 119.284 18.8157 119.276 18.8827C119.276 18.9497 119.272 19.0126 119.263 19.0713H113.594V18.2039H118.635L118.145 18.5056C118.153 18.0782 118.065 17.697 117.881 17.3618C117.696 17.0266 117.441 16.7668 117.114 16.5824C116.796 16.3897 116.423 16.2933 115.995 16.2933C115.576 16.2933 115.203 16.3897 114.877 16.5824C114.55 16.7668 114.294 17.0308 114.11 17.3743C113.925 17.7095 113.833 18.095 113.833 18.5308V18.7319C113.833 19.176 113.934 19.574 114.135 19.926C114.344 20.2696 114.634 20.5377 115.002 20.7305C115.371 20.9232 115.794 21.0196 116.272 21.0196C116.666 21.0196 117.022 20.9525 117.34 20.8184C117.667 20.6844 117.952 20.4833 118.195 20.2151L118.861 20.9944C118.559 21.3464 118.182 21.6145 117.73 21.7989C117.286 21.9832 116.787 22.0754 116.234 22.0754ZM123.717 22.0754C123.072 22.0754 122.493 21.933 121.982 21.648C121.48 21.3631 121.081 20.9651 120.788 20.4539C120.495 19.9428 120.348 19.3478 120.348 18.669C120.348 17.9903 120.495 17.3995 120.788 16.8967C121.081 16.3855 121.48 15.9875 121.982 15.7026C122.493 15.4176 123.072 15.2752 123.717 15.2752C124.278 15.2752 124.785 15.4009 125.238 15.6523C125.69 15.9037 126.051 16.2808 126.319 16.7836C126.595 17.2864 126.734 17.9148 126.734 18.669C126.734 19.4232 126.6 20.0517 126.331 20.5545C126.072 21.0573 125.716 21.4386 125.263 21.6983C124.81 21.9497 124.295 22.0754 123.717 22.0754ZM123.817 21.0196C124.236 21.0196 124.614 20.9232 124.949 20.7305C125.292 20.5377 125.56 20.2654 125.753 19.9134C125.954 19.5531 126.055 19.1383 126.055 18.669C126.055 18.1914 125.954 17.7808 125.753 17.4372C125.56 17.0852 125.292 16.8129 124.949 16.6202C124.614 16.4274 124.236 16.3311 123.817 16.3311C123.39 16.3311 123.009 16.4274 122.674 16.6202C122.338 16.8129 122.07 17.0852 121.869 17.4372C121.668 17.7808 121.567 18.1914 121.567 18.669C121.567 19.1383 121.668 19.5531 121.869 19.9134C122.07 20.2654 122.338 20.5377 122.674 20.7305C123.009 20.9232 123.39 21.0196 123.817 21.0196ZM126.093 22V20.2025L126.168 18.6565L126.042 17.1104V12.6733H127.249V22H126.093ZM133.084 22V14.7473C133.084 14.0936 133.272 13.5741 133.649 13.1886C134.035 12.7948 134.58 12.5978 135.284 12.5978C135.543 12.5978 135.791 12.6314 136.025 12.6984C136.268 12.7571 136.473 12.8534 136.641 12.9875L136.277 13.9051C136.151 13.8045 136.008 13.7291 135.849 13.6788C135.69 13.6202 135.522 13.5908 135.346 13.5908C134.994 13.5908 134.726 13.6914 134.542 13.8925C134.358 14.0853 134.265 14.3744 134.265 14.7598V15.6523L134.291 16.2054V22H133.084ZM131.953 16.3311V15.338H136.201V16.3311H131.953ZM140.207 22.0754C139.495 22.0754 138.867 21.9288 138.322 21.6355C137.786 21.3422 137.367 20.94 137.065 20.4288C136.772 19.9176 136.625 19.331 136.625 18.669C136.625 18.007 136.768 17.4204 137.052 16.9093C137.346 16.3981 137.744 16 138.247 15.7151C138.758 15.4218 139.332 15.2752 139.969 15.2752C140.614 15.2752 141.184 15.4176 141.678 15.7026C142.172 15.9875 142.558 16.3897 142.834 16.9093C143.119 17.4204 143.262 18.0196 143.262 18.7067C143.262 18.757 143.258 18.8157 143.249 18.8827C143.249 18.9497 143.245 19.0126 143.237 19.0713H137.568V18.2039H142.608L142.118 18.5056C142.126 18.0782 142.038 17.697 141.854 17.3618C141.67 17.0266 141.414 16.7668 141.087 16.5824C140.769 16.3897 140.396 16.2933 139.969 16.2933C139.55 16.2933 139.177 16.3897 138.85 16.5824C138.523 16.7668 138.267 17.0308 138.083 17.3743C137.899 17.7095 137.807 18.095 137.807 18.5308V18.7319C137.807 19.176 137.907 19.574 138.108 19.926C138.318 20.2696 138.607 20.5377 138.976 20.7305C139.344 20.9232 139.767 21.0196 140.245 21.0196C140.639 21.0196 140.995 20.9525 141.314 20.8184C141.64 20.6844 141.925 20.4833 142.168 20.2151L142.834 20.9944C142.533 21.3464 142.156 21.6145 141.703 21.7989C141.259 21.9832 140.76 22.0754 140.207 22.0754ZM146.223 22L143.746 15.338H144.89L147.09 21.3715H146.549L148.837 15.338H149.855L152.093 21.3715H151.565L153.815 15.338H154.896L152.407 22H151.25L149.151 16.4945H149.503L147.379 22H146.223ZM158.902 22.0754C158.19 22.0754 157.562 21.9288 157.017 21.6355C156.481 21.3422 156.062 20.94 155.76 20.4288C155.467 19.9176 155.32 19.331 155.32 18.669C155.32 18.007 155.463 17.4204 155.747 16.9093C156.041 16.3981 156.439 16 156.942 15.7151C157.453 15.4218 158.027 15.2752 158.664 15.2752C159.309 15.2752 159.879 15.4176 160.373 15.7026C160.868 15.9875 161.253 16.3897 161.53 16.9093C161.814 17.4204 161.957 18.0196 161.957 18.7067C161.957 18.757 161.953 18.8157 161.944 18.8827C161.944 18.9497 161.94 19.0126 161.932 19.0713H156.263V18.2039H161.303L160.813 18.5056C160.821 18.0782 160.733 17.697 160.549 17.3618C160.365 17.0266 160.109 16.7668 159.782 16.5824C159.464 16.3897 159.091 16.2933 158.664 16.2933C158.245 16.2933 157.872 16.3897 157.545 16.5824C157.218 16.7668 156.963 17.0308 156.778 17.3743C156.594 17.7095 156.502 18.095 156.502 18.5308V18.7319C156.502 19.176 156.602 19.574 156.803 19.926C157.013 20.2696 157.302 20.5377 157.671 20.7305C158.039 20.9232 158.463 21.0196 158.94 21.0196C159.334 21.0196 159.69 20.9525 160.009 20.8184C160.335 20.6844 160.62 20.4833 160.863 20.2151L161.53 20.9944C161.228 21.3464 160.851 21.6145 160.398 21.7989C159.954 21.9832 159.456 22.0754 158.902 22.0754ZM163.632 22V15.338H164.789V17.1481L164.676 16.6956C164.86 16.2347 165.17 15.8827 165.606 15.6397C166.042 15.3967 166.578 15.2752 167.215 15.2752V16.4442C167.165 16.4358 167.114 16.4316 167.064 16.4316C167.022 16.4316 166.98 16.4316 166.938 16.4316C166.293 16.4316 165.782 16.6243 165.405 17.0098C165.028 17.3953 164.839 17.9525 164.839 18.6816V22H163.632ZM175.067 22.0754C174.389 22.0754 173.781 21.9288 173.245 21.6355C172.717 21.3422 172.302 20.94 172 20.4288C171.699 19.9176 171.548 19.331 171.548 18.669C171.548 18.007 171.699 17.4204 172 16.9093C172.302 16.3981 172.717 16 173.245 15.7151C173.781 15.4218 174.389 15.2752 175.067 15.2752C175.671 15.2752 176.207 15.3967 176.676 15.6397C177.154 15.8743 177.523 16.2263 177.782 16.6956L176.865 17.2863C176.647 16.9595 176.379 16.7207 176.06 16.5699C175.75 16.4107 175.415 16.3311 175.055 16.3311C174.619 16.3311 174.229 16.4274 173.886 16.6202C173.542 16.8129 173.27 17.0852 173.069 17.4372C172.868 17.7808 172.767 18.1914 172.767 18.669C172.767 19.1467 172.868 19.5615 173.069 19.9134C173.27 20.2654 173.542 20.5377 173.886 20.7305C174.229 20.9232 174.619 21.0196 175.055 21.0196C175.415 21.0196 175.75 20.9441 176.06 20.7933C176.379 20.6341 176.647 20.3911 176.865 20.0643L177.782 20.6425C177.523 21.1034 177.154 21.4595 176.676 21.7109C176.207 21.9539 175.671 22.0754 175.067 22.0754ZM183.48 22V20.5922L183.417 20.3282V17.9274C183.417 17.4162 183.266 17.0224 182.965 16.7459C182.671 16.4609 182.227 16.3185 181.632 16.3185C181.239 16.3185 180.853 16.3855 180.476 16.5196C180.099 16.6453 179.78 16.8171 179.521 17.035L179.018 16.1299C179.361 15.8534 179.772 15.6439 180.25 15.5014C180.736 15.3506 181.243 15.2752 181.771 15.2752C182.684 15.2752 183.388 15.4973 183.882 15.9414C184.377 16.3855 184.624 17.0643 184.624 17.9777V22H183.48ZM181.293 22.0754C180.799 22.0754 180.363 21.9916 179.986 21.824C179.617 21.6564 179.332 21.426 179.131 21.1327C178.93 20.831 178.829 20.4916 178.829 20.1145C178.829 19.7542 178.913 19.4274 179.081 19.1341C179.257 18.8408 179.537 18.6062 179.923 18.4302C180.317 18.2542 180.845 18.1662 181.507 18.1662H183.618V19.0335H181.557C180.954 19.0335 180.547 19.1341 180.338 19.3352C180.128 19.5363 180.023 19.7793 180.023 20.0643C180.023 20.3911 180.153 20.655 180.413 20.8562C180.673 21.0489 181.033 21.1453 181.494 21.1453C181.947 21.1453 182.34 21.0447 182.676 20.8436C183.019 20.6425 183.266 20.3492 183.417 19.9637L183.656 20.7933C183.497 21.1872 183.216 21.5014 182.814 21.736C182.412 21.9623 181.905 22.0754 181.293 22.0754ZM186.857 22V12.6733H188.064V22H186.857ZM193.221 22.0754C192.551 22.0754 191.956 21.9288 191.436 21.6355C190.917 21.3422 190.506 20.94 190.204 20.4288C189.903 19.9092 189.752 19.3226 189.752 18.669C189.752 18.007 189.903 17.4204 190.204 16.9093C190.506 16.3981 190.917 16 191.436 15.7151C191.956 15.4218 192.551 15.2752 193.221 15.2752C193.883 15.2752 194.474 15.4218 194.993 15.7151C195.521 16 195.932 16.3981 196.225 16.9093C196.527 17.412 196.678 17.9986 196.678 18.669C196.678 19.331 196.527 19.9176 196.225 20.4288C195.932 20.94 195.521 21.3422 194.993 21.6355C194.474 21.9288 193.883 22.0754 193.221 22.0754ZM193.221 21.0196C193.648 21.0196 194.03 20.9232 194.365 20.7305C194.708 20.5377 194.977 20.2654 195.169 19.9134C195.362 19.5531 195.458 19.1383 195.458 18.669C195.458 18.1914 195.362 17.7808 195.169 17.4372C194.977 17.0852 194.708 16.8129 194.365 16.6202C194.03 16.4274 193.648 16.3311 193.221 16.3311C192.794 16.3311 192.412 16.4274 192.077 16.6202C191.742 16.8129 191.474 17.0852 191.273 17.4372C191.072 17.7808 190.971 18.1914 190.971 18.669C190.971 19.1383 191.072 19.5531 191.273 19.9134C191.474 20.2654 191.742 20.5377 192.077 20.7305C192.412 20.9232 192.794 21.0196 193.221 21.0196ZM198.347 22V15.338H199.503V17.1481L199.39 16.6956C199.574 16.2347 199.884 15.8827 200.32 15.6397C200.756 15.3967 201.292 15.2752 201.929 15.2752V16.4442C201.879 16.4358 201.828 16.4316 201.778 16.4316C201.736 16.4316 201.694 16.4316 201.652 16.4316C201.007 16.4316 200.496 16.6243 200.119 17.0098C199.742 17.3953 199.553 17.9525 199.553 18.6816V22H198.347ZM203.416 22V15.338H204.623V22H203.416ZM204.02 14.0559C203.785 14.0559 203.588 13.9805 203.429 13.8297C203.278 13.6788 203.202 13.4945 203.202 13.2766C203.202 13.0504 203.278 12.8618 203.429 12.711C203.588 12.5601 203.785 12.4847 204.02 12.4847C204.254 12.4847 204.447 12.5601 204.598 12.711C204.757 12.8534 204.837 13.0336 204.837 13.2515C204.837 13.4777 204.761 13.6705 204.61 13.8297C204.459 13.9805 204.263 14.0559 204.02 14.0559ZM209.893 22.0754C209.181 22.0754 208.553 21.9288 208.008 21.6355C207.472 21.3422 207.053 20.94 206.751 20.4288C206.458 19.9176 206.311 19.331 206.311 18.669C206.311 18.007 206.453 17.4204 206.738 16.9093C207.032 16.3981 207.43 16 207.932 15.7151C208.444 15.4218 209.018 15.2752 209.655 15.2752C210.3 15.2752 210.87 15.4176 211.364 15.7026C211.858 15.9875 212.244 16.3897 212.52 16.9093C212.805 17.4204 212.948 18.0196 212.948 18.7067C212.948 18.757 212.944 18.8157 212.935 18.8827C212.935 18.9497 212.931 19.0126 212.923 19.0713H207.254V18.2039H212.294L211.804 18.5056C211.812 18.0782 211.724 17.697 211.54 17.3618C211.356 17.0266 211.1 16.7668 210.773 16.5824C210.455 16.3897 210.082 16.2933 209.655 16.2933C209.236 16.2933 208.863 16.3897 208.536 16.5824C208.209 16.7668 207.953 17.0308 207.769 17.3743C207.585 17.7095 207.493 18.095 207.493 18.5308V18.7319C207.493 19.176 207.593 19.574 207.794 19.926C208.004 20.2696 208.293 20.5377 208.662 20.7305C209.03 20.9232 209.453 21.0196 209.931 21.0196C210.325 21.0196 210.681 20.9525 210.999 20.8184C211.326 20.6844 211.611 20.4833 211.854 20.2151L212.52 20.9944C212.219 21.3464 211.842 21.6145 211.389 21.7989C210.945 21.9832 210.446 22.0754 209.893 22.0754ZM216.534 22.0754C215.981 22.0754 215.453 22 214.95 21.8492C214.456 21.6983 214.066 21.514 213.781 21.2961L214.284 20.3408C214.569 20.5335 214.921 20.6969 215.34 20.831C215.759 20.9651 216.186 21.0321 216.622 21.0321C217.183 21.0321 217.586 20.9525 217.829 20.7933C218.08 20.6341 218.206 20.412 218.206 20.1271C218.206 19.9176 218.13 19.7542 217.98 19.6369C217.829 19.5196 217.628 19.4316 217.376 19.3729C217.133 19.3143 216.861 19.264 216.559 19.2221C216.257 19.1718 215.956 19.1132 215.654 19.0461C215.352 18.9707 215.076 18.8701 214.824 18.7444C214.573 18.6104 214.372 18.4302 214.221 18.2039C214.07 17.9693 213.995 17.6593 213.995 17.2738C213.995 16.8715 214.108 16.5196 214.334 16.2179C214.561 15.9162 214.879 15.6858 215.29 15.5266C215.709 15.359 216.203 15.2752 216.773 15.2752C217.209 15.2752 217.648 15.3297 218.093 15.4386C218.545 15.5392 218.914 15.6858 219.199 15.8785L218.683 16.8338C218.382 16.6327 218.067 16.4945 217.741 16.419C217.414 16.3436 217.087 16.3059 216.76 16.3059C216.232 16.3059 215.838 16.3939 215.579 16.5699C215.319 16.7375 215.189 16.9553 215.189 17.2235C215.189 17.4498 215.264 17.6257 215.415 17.7514C215.574 17.8687 215.776 17.9609 216.019 18.028C216.27 18.095 216.547 18.1537 216.848 18.2039C217.15 18.2458 217.452 18.3045 217.753 18.3799C218.055 18.447 218.327 18.5433 218.57 18.669C218.822 18.7947 219.023 18.9707 219.174 19.1969C219.333 19.4232 219.412 19.7249 219.412 20.102C219.412 20.5042 219.295 20.852 219.06 21.1453C218.826 21.4386 218.495 21.669 218.067 21.8366C217.64 21.9958 217.129 22.0754 216.534 22.0754ZM226.584 22.0754C225.913 22.0754 225.394 21.8953 225.025 21.5349C224.657 21.1746 224.472 20.6592 224.472 19.9888V13.88H225.679V19.9386C225.679 20.2989 225.767 20.5754 225.943 20.7682C226.127 20.9609 226.387 21.0573 226.722 21.0573C227.099 21.0573 227.413 20.9525 227.665 20.743L228.042 21.6103C227.858 21.7696 227.636 21.8869 227.376 21.9623C227.124 22.0377 226.86 22.0754 226.584 22.0754ZM223.341 16.3311V15.338H227.589V16.3311H223.341ZM233.058 15.2752C233.603 15.2752 234.08 15.3799 234.491 15.5894C234.91 15.7989 235.237 16.1174 235.471 16.5447C235.706 16.9721 235.823 17.5126 235.823 18.1662V22H234.617V18.3045C234.617 17.6593 234.458 17.1732 234.139 16.8464C233.829 16.5196 233.389 16.3562 232.819 16.3562C232.392 16.3562 232.019 16.44 231.701 16.6076C231.382 16.7752 231.135 17.0224 230.959 17.3492C230.791 17.676 230.708 18.0824 230.708 18.5685V22H229.501V12.6733H230.708V17.1355L230.469 16.6579C230.687 16.2221 231.022 15.8827 231.474 15.6397C231.927 15.3967 232.455 15.2752 233.058 15.2752ZM242.192 22V20.5922L242.129 20.3282V17.9274C242.129 17.4162 241.978 17.0224 241.677 16.7459C241.383 16.4609 240.939 16.3185 240.344 16.3185C239.95 16.3185 239.565 16.3855 239.188 16.5196C238.811 16.6453 238.492 16.8171 238.233 17.035L237.73 16.1299C238.073 15.8534 238.484 15.6439 238.962 15.5014C239.448 15.3506 239.955 15.2752 240.483 15.2752C241.396 15.2752 242.1 15.4973 242.594 15.9414C243.089 16.3855 243.336 17.0643 243.336 17.9777V22H242.192ZM240.005 22.0754C239.511 22.0754 239.075 21.9916 238.698 21.824C238.329 21.6564 238.044 21.426 237.843 21.1327C237.642 20.831 237.541 20.4916 237.541 20.1145C237.541 19.7542 237.625 19.4274 237.793 19.1341C237.969 18.8408 238.249 18.6062 238.635 18.4302C239.029 18.2542 239.557 18.1662 240.219 18.1662H242.33V19.0335H240.269C239.666 19.0335 239.259 19.1341 239.05 19.3352C238.84 19.5363 238.735 19.7793 238.735 20.0643C238.735 20.3911 238.865 20.655 239.125 20.8562C239.385 21.0489 239.745 21.1453 240.206 21.1453C240.659 21.1453 241.052 21.0447 241.388 20.8436C241.731 20.6425 241.978 20.3492 242.129 19.9637L242.368 20.7933C242.209 21.1872 241.928 21.5014 241.526 21.736C241.124 21.9623 240.617 22.0754 240.005 22.0754ZM249.126 15.2752C249.671 15.2752 250.149 15.3799 250.559 15.5894C250.978 15.7989 251.305 16.1174 251.54 16.5447C251.774 16.9721 251.892 17.5126 251.892 18.1662V22H250.685V18.3045C250.685 17.6593 250.526 17.1732 250.207 16.8464C249.897 16.5196 249.457 16.3562 248.887 16.3562C248.46 16.3562 248.087 16.44 247.769 16.6076C247.45 16.7752 247.203 17.0224 247.027 17.3492C246.859 17.676 246.776 18.0824 246.776 18.5685V22H245.569V15.338H246.725V17.1355L246.537 16.6579C246.755 16.2221 247.09 15.8827 247.542 15.6397C247.995 15.3967 248.523 15.2752 249.126 15.2752ZM38.4329 39.5139C38.1145 39.5139 37.8045 39.4595 37.5028 39.3505C37.2011 39.25 36.9413 39.0991 36.7235 38.898L37.2388 37.993C37.4064 38.1522 37.5908 38.2737 37.7919 38.3575C37.993 38.4413 38.2067 38.4832 38.4329 38.4832C38.7262 38.4832 38.9693 38.4078 39.162 38.257C39.3547 38.1061 39.5349 37.838 39.7025 37.4525L40.1173 36.5349L40.243 36.3841L42.8575 30.338H44.0391L40.8086 37.6662C40.6159 38.1355 40.398 38.5042 40.155 38.7723C39.9204 39.0405 39.6606 39.229 39.3757 39.338C39.0908 39.4553 38.7765 39.5139 38.4329 39.5139ZM40.0167 37.2137L36.9749 30.338H38.2318L40.8212 36.271L40.0167 37.2137ZM47.9476 37.0754C47.2353 37.0754 46.6068 36.9288 46.0621 36.6355C45.5258 36.3422 45.1068 35.94 44.8051 35.4288C44.5118 34.9176 44.3652 34.331 44.3652 33.669C44.3652 33.007 44.5076 32.4204 44.7925 31.9093C45.0858 31.3981 45.4839 31 45.9867 30.7151C46.4978 30.4218 47.0719 30.2752 47.7087 30.2752C48.354 30.2752 48.9238 30.4176 49.4182 30.7026C49.9126 30.9875 50.2981 31.3897 50.5746 31.9093C50.8595 32.4204 51.002 33.0196 51.002 33.7067C51.002 33.757 50.9978 33.8157 50.9894 33.8827C50.9894 33.9497 50.9852 34.0126 50.9769 34.0713H45.3079V33.2039H50.3484L49.8581 33.5056C49.8665 33.0782 49.7785 32.697 49.5942 32.3618C49.4098 32.0266 49.1542 31.7668 48.8274 31.5824C48.509 31.3897 48.1361 31.2933 47.7087 31.2933C47.2897 31.2933 46.9168 31.3897 46.59 31.5824C46.2632 31.7668 46.0076 32.0308 45.8233 32.3743C45.6389 32.7095 45.5467 33.095 45.5467 33.5308V33.7319C45.5467 34.176 45.6473 34.574 45.8484 34.926C46.0579 35.2696 46.347 35.5377 46.7157 35.7305C47.0844 35.9232 47.5076 36.0196 47.9853 36.0196C48.3791 36.0196 48.7353 35.9525 49.0537 35.8184C49.3805 35.6844 49.6654 35.4833 49.9084 35.2151L50.5746 35.9944C50.273 36.3464 49.8959 36.6145 49.4433 36.7989C48.9992 36.9832 48.5006 37.0754 47.9476 37.0754ZM54.5882 37.0754C54.0351 37.0754 53.5072 37 53.0044 36.8492C52.51 36.6983 52.1203 36.514 51.8354 36.2961L52.3382 35.3408C52.6231 35.5335 52.9751 35.6969 53.3941 35.831C53.8131 35.9651 54.2404 36.0321 54.6762 36.0321C55.2376 36.0321 55.6399 35.9525 55.8829 35.7933C56.1343 35.6341 56.26 35.412 56.26 35.1271C56.26 34.9176 56.1846 34.7542 56.0337 34.6369C55.8829 34.5196 55.6818 34.4316 55.4304 34.3729C55.1874 34.3143 54.915 34.264 54.6133 34.2221C54.3117 34.1718 54.01 34.1132 53.7083 34.0461C53.4066 33.9707 53.1301 33.8701 52.8787 33.7444C52.6273 33.6104 52.4262 33.4302 52.2754 33.2039C52.1245 32.9693 52.0491 32.6593 52.0491 32.2738C52.0491 31.8715 52.1622 31.5196 52.3885 31.2179C52.6148 30.9162 52.9332 30.6858 53.3438 30.5266C53.7628 30.359 54.2572 30.2752 54.827 30.2752C55.2628 30.2752 55.7027 30.3297 56.1468 30.4386C56.5994 30.5392 56.9681 30.6858 57.253 30.8785L56.7376 31.8338C56.4359 31.6327 56.1217 31.4945 55.7949 31.419C55.4681 31.3436 55.1413 31.3059 54.8145 31.3059C54.2865 31.3059 53.8927 31.3939 53.6329 31.5699C53.3731 31.7375 53.2432 31.9553 53.2432 32.2235C53.2432 32.4498 53.3187 32.6257 53.4695 32.7514C53.6287 32.8687 53.8298 32.9609 54.0728 33.028C54.3242 33.095 54.6008 33.1537 54.9024 33.2039C55.2041 33.2458 55.5058 33.3045 55.8075 33.3799C56.1091 33.447 56.3815 33.5433 56.6245 33.669C56.8759 33.7947 57.077 33.9707 57.2278 34.1969C57.3871 34.4232 57.4667 34.7249 57.4667 35.102C57.4667 35.5042 57.3494 35.852 57.1147 36.1453C56.8801 36.4386 56.5491 36.669 56.1217 36.8366C55.6943 36.9958 55.1832 37.0754 54.5882 37.0754ZM61.2624 37.0754C60.592 37.0754 60.0725 36.8953 59.7038 36.5349C59.3351 36.1746 59.1507 35.6592 59.1507 34.9888V28.88H60.3574V34.9386C60.3574 35.2989 60.4454 35.5754 60.6214 35.7682C60.8057 35.9609 61.0655 36.0573 61.4007 36.0573C61.7778 36.0573 62.092 35.9525 62.3434 35.743L62.7205 36.6103C62.5362 36.7696 62.3141 36.8869 62.0543 36.9623C61.8029 37.0377 61.539 37.0754 61.2624 37.0754ZM58.0194 31.3311V30.338H62.268V31.3311H58.0194ZM66.9249 37.0754C66.2126 37.0754 65.5841 36.9288 65.0394 36.6355C64.5031 36.3422 64.0841 35.94 63.7825 35.4288C63.4892 34.9176 63.3425 34.331 63.3425 33.669C63.3425 33.007 63.485 32.4204 63.7699 31.9093C64.0632 31.3981 64.4612 31 64.964 30.7151C65.4752 30.4218 66.0492 30.2752 66.6861 30.2752C67.3313 30.2752 67.9012 30.4176 68.3956 30.7026C68.89 30.9875 69.2754 31.3897 69.552 31.9093C69.8369 32.4204 69.9793 33.0196 69.9793 33.7067C69.9793 33.757 69.9752 33.8157 69.9668 33.8827C69.9668 33.9497 69.9626 34.0126 69.9542 34.0713H64.2853V33.2039H69.3257L68.8355 33.5056C68.8439 33.0782 68.7559 32.697 68.5715 32.3618C68.3872 32.0266 68.1316 31.7668 67.8048 31.5824C67.4863 31.3897 67.1134 31.2933 66.6861 31.2933C66.2671 31.2933 65.8942 31.3897 65.5674 31.5824C65.2406 31.7668 64.985 32.0308 64.8006 32.3743C64.6163 32.7095 64.5241 33.095 64.5241 33.5308V33.7319C64.5241 34.176 64.6246 34.574 64.8258 34.926C65.0353 35.2696 65.3244 35.5377 65.6931 35.7305C66.0618 35.9232 66.485 36.0196 66.9626 36.0196C67.3565 36.0196 67.7126 35.9525 68.031 35.8184C68.3579 35.6844 68.6428 35.4833 68.8858 35.2151L69.552 35.9944C69.2503 36.3464 68.8732 36.6145 68.4207 36.7989C67.9766 36.9832 67.478 37.0754 66.9249 37.0754ZM71.655 37V30.338H72.8114V32.1481L72.6982 31.6956C72.8826 31.2347 73.1926 30.8827 73.6284 30.6397C74.0641 30.3967 74.6005 30.2752 75.2373 30.2752V31.4442C75.187 31.4358 75.1368 31.4316 75.0865 31.4316C75.0446 31.4316 75.0027 31.4316 74.9608 31.4316C74.3155 31.4316 73.8044 31.6243 73.4273 32.0098C73.0502 32.3953 72.8616 32.9525 72.8616 33.6816V37H71.655ZM79.416 37.0754C78.7707 37.0754 78.1925 36.933 77.6813 36.648C77.1786 36.3631 76.7805 35.9651 76.4872 35.4539C76.1939 34.9428 76.0473 34.3478 76.0473 33.669C76.0473 32.9903 76.1939 32.3995 76.4872 31.8967C76.7805 31.3855 77.1786 30.9875 77.6813 30.7026C78.1925 30.4176 78.7707 30.2752 79.416 30.2752C79.9774 30.2752 80.4844 30.4009 80.9369 30.6523C81.3894 30.9037 81.7498 31.2808 82.0179 31.7836C82.2944 32.2864 82.4327 32.9148 82.4327 33.669C82.4327 34.4232 82.2986 35.0517 82.0305 35.5545C81.7707 36.0573 81.4146 36.4386 80.9621 36.6983C80.5095 36.9497 79.9942 37.0754 79.416 37.0754ZM79.5165 36.0196C79.9355 36.0196 80.3126 35.9232 80.6478 35.7305C80.9914 35.5377 81.2595 35.2654 81.4523 34.9134C81.6534 34.5531 81.7539 34.1383 81.7539 33.669C81.7539 33.1914 81.6534 32.7808 81.4523 32.4372C81.2595 32.0852 80.9914 31.8129 80.6478 31.6202C80.3126 31.4274 79.9355 31.3311 79.5165 31.3311C79.0892 31.3311 78.7079 31.4274 78.3727 31.6202C78.0375 31.8129 77.7693 32.0852 77.5682 32.4372C77.3671 32.7808 77.2665 33.1914 77.2665 33.669C77.2665 34.1383 77.3671 34.5531 77.5682 34.9134C77.7693 35.2654 78.0375 35.5377 78.3727 35.7305C78.7079 35.9232 79.0892 36.0196 79.5165 36.0196ZM81.7917 37V35.2025L81.8671 33.6565L81.7414 32.1104V27.6733H82.9481V37H81.7917ZM89.3667 37V35.5922L89.3038 35.3282V32.9274C89.3038 32.4162 89.153 32.0224 88.8513 31.7459C88.558 31.4609 88.1139 31.3185 87.5189 31.3185C87.1251 31.3185 86.7396 31.3855 86.3625 31.5196C85.9854 31.6453 85.667 31.8171 85.4072 32.035L84.9044 31.1299C85.248 30.8534 85.6586 30.6439 86.1363 30.5014C86.6223 30.3506 87.1293 30.2752 87.6572 30.2752C88.5706 30.2752 89.2745 30.4973 89.7689 30.9414C90.2633 31.3855 90.5105 32.0643 90.5105 32.9777V37H89.3667ZM87.1796 37.0754C86.6851 37.0754 86.2494 36.9916 85.8723 36.824C85.5036 36.6564 85.2187 36.426 85.0176 36.1327C84.8164 35.831 84.7159 35.4916 84.7159 35.1145C84.7159 34.7542 84.7997 34.4274 84.9673 34.1341C85.1433 33.8408 85.424 33.6062 85.8095 33.4302C86.2033 33.2542 86.7312 33.1662 87.3932 33.1662H89.505V34.0335H87.4435C86.8402 34.0335 86.4337 34.1341 86.2243 34.3352C86.0148 34.5363 85.91 34.7793 85.91 35.0643C85.91 35.3911 86.0399 35.655 86.2997 35.8562C86.5594 36.0489 86.9198 36.1453 87.3807 36.1453C87.8332 36.1453 88.227 36.0447 88.5622 35.8436C88.9058 35.6425 89.153 35.3492 89.3038 34.9637L89.5427 35.7933C89.3834 36.1872 89.1027 36.5014 88.7005 36.736C88.2983 36.9623 87.7913 37.0754 87.1796 37.0754ZM92.91 39.5139C92.5915 39.5139 92.2815 39.4595 91.9798 39.3505C91.6781 39.25 91.4184 39.0991 91.2005 38.898L91.7158 37.993C91.8834 38.1522 92.0678 38.2737 92.2689 38.3575C92.47 38.4413 92.6837 38.4832 92.91 38.4832C93.2033 38.4832 93.4463 38.4078 93.639 38.257C93.8318 38.1061 94.0119 37.838 94.1795 37.4525L94.5943 36.5349L94.72 36.3841L97.3345 30.338H98.5161L95.2857 37.6662C95.0929 38.1355 94.875 38.5042 94.632 38.7723C94.3974 39.0405 94.1376 39.229 93.8527 39.338C93.5678 39.4553 93.2535 39.5139 92.91 39.5139ZM94.4938 37.2137L91.4519 30.338H92.7089L95.2982 36.271L94.4938 37.2137ZM99.514 37.0754C99.2794 37.0754 99.0782 36.9958 98.9106 36.8366C98.7431 36.669 98.6593 36.4595 98.6593 36.2081C98.6593 35.9567 98.7431 35.7514 98.9106 35.5922C99.0782 35.433 99.2794 35.3534 99.514 35.3534C99.7403 35.3534 99.933 35.433 100.092 35.5922C100.26 35.7514 100.344 35.9567 100.344 36.2081C100.344 36.4595 100.26 36.669 100.092 36.8366C99.933 36.9958 99.7403 37.0754 99.514 37.0754ZM107.372 37V29.2948H104.355V28.2012H111.633V29.2948H108.616V37H107.372ZM112.826 37V30.338H114.032V37H112.826ZM113.429 29.0559C113.194 29.0559 112.998 28.9805 112.838 28.8297C112.687 28.6788 112.612 28.4945 112.612 28.2766C112.612 28.0504 112.687 27.8618 112.838 27.711C112.998 27.5601 113.194 27.4847 113.429 27.4847C113.664 27.4847 113.856 27.5601 114.007 27.711C114.167 27.8534 114.246 28.0336 114.246 28.2515C114.246 28.4777 114.171 28.6705 114.02 28.8297C113.869 28.9805 113.672 29.0559 113.429 29.0559ZM124.67 30.2752C125.206 30.2752 125.68 30.3799 126.091 30.5894C126.501 30.7989 126.82 31.1174 127.046 31.5447C127.28 31.9721 127.398 32.5126 127.398 33.1662V37H126.191V33.3045C126.191 32.6593 126.04 32.1732 125.739 31.8464C125.437 31.5196 125.014 31.3562 124.469 31.3562C124.067 31.3562 123.715 31.44 123.413 31.6076C123.112 31.7752 122.877 32.0224 122.709 32.3492C122.55 32.676 122.47 33.0824 122.47 33.5685V37H121.264V33.3045C121.264 32.6593 121.113 32.1732 120.811 31.8464C120.518 31.5196 120.095 31.3562 119.542 31.3562C119.148 31.3562 118.8 31.44 118.498 31.6076C118.197 31.7752 117.962 32.0224 117.795 32.3492C117.627 32.676 117.543 33.0824 117.543 33.5685V37H116.336V30.338H117.493V32.1104L117.304 31.6579C117.514 31.2221 117.836 30.8827 118.272 30.6397C118.708 30.3967 119.215 30.2752 119.793 30.2752C120.43 30.2752 120.979 30.4344 121.44 30.7528C121.901 31.0629 122.202 31.5364 122.345 32.1732L121.855 31.9721C122.056 31.4609 122.408 31.0503 122.91 30.7403C123.413 30.4302 124 30.2752 124.67 30.2752ZM132.585 37.0754C131.872 37.0754 131.244 36.9288 130.699 36.6355C130.163 36.3422 129.744 35.94 129.442 35.4288C129.149 34.9176 129.002 34.331 129.002 33.669C129.002 33.007 129.145 32.4204 129.43 31.9093C129.723 31.3981 130.121 31 130.624 30.7151C131.135 30.4218 131.709 30.2752 132.346 30.2752C132.991 30.2752 133.561 30.4176 134.055 30.7026C134.55 30.9875 134.935 31.3897 135.212 31.9093C135.497 32.4204 135.639 33.0196 135.639 33.7067C135.639 33.757 135.635 33.8157 135.626 33.8827C135.626 33.9497 135.622 34.0126 135.614 34.0713H129.945V33.2039H134.985L134.495 33.5056C134.504 33.0782 134.416 32.697 134.231 32.3618C134.047 32.0266 133.791 31.7668 133.464 31.5824C133.146 31.3897 132.773 31.2933 132.346 31.2933C131.927 31.2933 131.554 31.3897 131.227 31.5824C130.9 31.7668 130.645 32.0308 130.46 32.3743C130.276 32.7095 130.184 33.095 130.184 33.5308V33.7319C130.184 34.176 130.284 34.574 130.485 34.926C130.695 35.2696 130.984 35.5377 131.353 35.7305C131.721 35.9232 132.145 36.0196 132.622 36.0196C133.016 36.0196 133.372 35.9525 133.691 35.8184C134.018 35.6844 134.302 35.4833 134.545 35.2151L135.212 35.9944C134.91 36.3464 134.533 36.6145 134.08 36.7989C133.636 36.9832 133.138 37.0754 132.585 37.0754ZM142.978 37.0754C142.308 37.0754 141.788 36.8953 141.419 36.5349C141.051 36.1746 140.866 35.6592 140.866 34.9888V28.88H142.073V34.9386C142.073 35.2989 142.161 35.5754 142.337 35.7682C142.521 35.9609 142.781 36.0573 143.116 36.0573C143.493 36.0573 143.808 35.9525 144.059 35.743L144.436 36.6103C144.252 36.7696 144.03 36.8869 143.77 36.9623C143.518 37.0377 143.255 37.0754 142.978 37.0754ZM139.735 31.3311V30.338H143.984V31.3311H139.735ZM148.527 37.0754C147.857 37.0754 147.262 36.9288 146.742 36.6355C146.223 36.3422 145.812 35.94 145.511 35.4288C145.209 34.9092 145.058 34.3226 145.058 33.669C145.058 33.007 145.209 32.4204 145.511 31.9093C145.812 31.3981 146.223 31 146.742 30.7151C147.262 30.4218 147.857 30.2752 148.527 30.2752C149.189 30.2752 149.78 30.4218 150.3 30.7151C150.828 31 151.238 31.3981 151.531 31.9093C151.833 32.412 151.984 32.9986 151.984 33.669C151.984 34.331 151.833 34.9176 151.531 35.4288C151.238 35.94 150.828 36.3422 150.3 36.6355C149.78 36.9288 149.189 37.0754 148.527 37.0754ZM148.527 36.0196C148.955 36.0196 149.336 35.9232 149.671 35.7305C150.015 35.5377 150.283 35.2654 150.476 34.9134C150.668 34.5531 150.765 34.1383 150.765 33.669C150.765 33.1914 150.668 32.7808 150.476 32.4372C150.283 32.0852 150.015 31.8129 149.671 31.6202C149.336 31.4274 148.955 31.3311 148.527 31.3311C148.1 31.3311 147.719 31.4274 147.383 31.6202C147.048 31.8129 146.78 32.0852 146.579 32.4372C146.378 32.7808 146.277 33.1914 146.277 33.669C146.277 34.1383 146.378 34.5531 146.579 34.9134C146.78 35.2654 147.048 35.5377 147.383 35.7305C147.719 35.9232 148.1 36.0196 148.527 36.0196ZM159.945 39.5139C159.333 39.5139 158.738 39.426 158.16 39.25C157.59 39.0824 157.125 38.8394 156.765 38.5209L157.343 37.5908C157.653 37.8589 158.034 38.0684 158.487 38.2193C158.939 38.3785 159.413 38.4581 159.907 38.4581C160.695 38.4581 161.273 38.2737 161.642 37.905C162.01 37.5363 162.195 36.9749 162.195 36.2207V34.8129L162.32 33.493L162.257 32.1607V30.338H163.401V36.095C163.401 37.2682 163.108 38.1313 162.521 38.6843C161.935 39.2374 161.076 39.5139 159.945 39.5139ZM159.794 36.7235C159.149 36.7235 158.57 36.5894 158.059 36.3212C157.556 36.0447 157.154 35.6634 156.852 35.1774C156.559 34.6914 156.413 34.1299 156.413 33.493C156.413 32.8478 156.559 32.2864 156.852 31.8087C157.154 31.3227 157.556 30.9456 158.059 30.6774C158.57 30.4093 159.149 30.2752 159.794 30.2752C160.364 30.2752 160.883 30.3925 161.352 30.6271C161.822 30.8534 162.195 31.2054 162.471 31.683C162.756 32.1607 162.899 32.764 162.899 33.493C162.899 34.2137 162.756 34.8129 162.471 35.2905C162.195 35.7682 161.822 36.1285 161.352 36.3715C160.883 36.6061 160.364 36.7235 159.794 36.7235ZM159.932 35.6676C160.376 35.6676 160.77 35.5754 161.114 35.3911C161.457 35.2067 161.725 34.9511 161.918 34.6243C162.119 34.2975 162.22 33.9204 162.22 33.493C162.22 33.0657 162.119 32.6886 161.918 32.3618C161.725 32.035 161.457 31.7836 161.114 31.6076C160.77 31.4232 160.376 31.3311 159.932 31.3311C159.488 31.3311 159.09 31.4232 158.738 31.6076C158.394 31.7836 158.122 32.035 157.921 32.3618C157.728 32.6886 157.632 33.0657 157.632 33.493C157.632 33.9204 157.728 34.2975 157.921 34.6243C158.122 34.9511 158.394 35.2067 158.738 35.3911C159.09 35.5754 159.488 35.6676 159.932 35.6676ZM168.673 37.0754C167.961 37.0754 167.333 36.9288 166.788 36.6355C166.252 36.3422 165.833 35.94 165.531 35.4288C165.238 34.9176 165.091 34.331 165.091 33.669C165.091 33.007 165.234 32.4204 165.518 31.9093C165.812 31.3981 166.21 31 166.713 30.7151C167.224 30.4218 167.798 30.2752 168.435 30.2752C169.08 30.2752 169.65 30.4176 170.144 30.7026C170.639 30.9875 171.024 31.3897 171.301 31.9093C171.585 32.4204 171.728 33.0196 171.728 33.7067C171.728 33.757 171.724 33.8157 171.715 33.8827C171.715 33.9497 171.711 34.0126 171.703 34.0713H166.034V33.2039H171.074L170.584 33.5056C170.592 33.0782 170.504 32.697 170.32 32.3618C170.136 32.0266 169.88 31.7668 169.553 31.5824C169.235 31.3897 168.862 31.2933 168.435 31.2933C168.016 31.2933 167.643 31.3897 167.316 31.5824C166.989 31.7668 166.734 32.0308 166.549 32.3743C166.365 32.7095 166.273 33.095 166.273 33.5308V33.7319C166.273 34.176 166.373 34.574 166.574 34.926C166.784 35.2696 167.073 35.5377 167.442 35.7305C167.81 35.9232 168.234 36.0196 168.711 36.0196C169.105 36.0196 169.461 35.9525 169.78 35.8184C170.106 35.6844 170.391 35.4833 170.634 35.2151L171.301 35.9944C170.999 36.3464 170.622 36.6145 170.169 36.7989C169.725 36.9832 169.227 37.0754 168.673 37.0754ZM175.691 37.0754C175.021 37.0754 174.501 36.8953 174.133 36.5349C173.764 36.1746 173.579 35.6592 173.579 34.9888V28.88H174.786V34.9386C174.786 35.2989 174.874 35.5754 175.05 35.7682C175.234 35.9609 175.494 36.0573 175.829 36.0573C176.207 36.0573 176.521 35.9525 176.772 35.743L177.149 36.6103C176.965 36.7696 176.743 36.8869 176.483 36.9623C176.232 37.0377 175.968 37.0754 175.691 37.0754ZM172.448 31.3311V30.338H176.697V31.3311H172.448ZM190.318 30.2752C190.854 30.2752 191.327 30.3799 191.738 30.5894C192.149 30.7989 192.467 31.1174 192.693 31.5447C192.928 31.9721 193.045 32.5126 193.045 33.1662V37H191.838V33.3045C191.838 32.6593 191.688 32.1732 191.386 31.8464C191.084 31.5196 190.661 31.3562 190.116 31.3562C189.714 31.3562 189.362 31.44 189.061 31.6076C188.759 31.7752 188.524 32.0224 188.357 32.3492C188.197 32.676 188.118 33.0824 188.118 33.5685V37H186.911V33.3045C186.911 32.6593 186.76 32.1732 186.459 31.8464C186.165 31.5196 185.742 31.3562 185.189 31.3562C184.795 31.3562 184.447 31.44 184.146 31.6076C183.844 31.7752 183.609 32.0224 183.442 32.3492C183.274 32.676 183.191 33.0824 183.191 33.5685V37H181.984V30.338H183.14V32.1104L182.952 31.6579C183.161 31.2221 183.484 30.8827 183.92 30.6397C184.355 30.3967 184.862 30.2752 185.44 30.2752C186.077 30.2752 186.626 30.4344 187.087 30.7528C187.548 31.0629 187.85 31.5364 187.992 32.1732L187.502 31.9721C187.703 31.4609 188.055 31.0503 188.558 30.7403C189.061 30.4302 189.647 30.2752 190.318 30.2752ZM198.119 37.0754C197.448 37.0754 196.853 36.9288 196.334 36.6355C195.814 36.3422 195.404 35.94 195.102 35.4288C194.8 34.9092 194.65 34.3226 194.65 33.669C194.65 33.007 194.8 32.4204 195.102 31.9093C195.404 31.3981 195.814 31 196.334 30.7151C196.853 30.4218 197.448 30.2752 198.119 30.2752C198.781 30.2752 199.372 30.4218 199.891 30.7151C200.419 31 200.83 31.3981 201.123 31.9093C201.425 32.412 201.576 32.9986 201.576 33.669C201.576 34.331 201.425 34.9176 201.123 35.4288C200.83 35.94 200.419 36.3422 199.891 36.6355C199.372 36.9288 198.781 37.0754 198.119 37.0754ZM198.119 36.0196C198.546 36.0196 198.927 35.9232 199.263 35.7305C199.606 35.5377 199.874 35.2654 200.067 34.9134C200.26 34.5531 200.356 34.1383 200.356 33.669C200.356 33.1914 200.26 32.7808 200.067 32.4372C199.874 32.0852 199.606 31.8129 199.263 31.6202C198.927 31.4274 198.546 31.3311 198.119 31.3311C197.691 31.3311 197.31 31.4274 196.975 31.6202C196.64 31.8129 196.372 32.0852 196.171 32.4372C195.969 32.7808 195.869 33.1914 195.869 33.669C195.869 34.1383 195.969 34.5531 196.171 34.9134C196.372 35.2654 196.64 35.5377 196.975 35.7305C197.31 35.9232 197.691 36.0196 198.119 36.0196ZM204.807 37L201.891 30.338H203.148L205.738 36.3715H205.134L207.774 30.338H208.955L206.039 37H204.807ZM210.082 37V30.338H211.288V37H210.082ZM210.685 29.0559C210.45 29.0559 210.253 28.9805 210.094 28.8297C209.943 28.6788 209.868 28.4945 209.868 28.2766C209.868 28.0504 209.943 27.8618 210.094 27.711C210.253 27.5601 210.45 27.4847 210.685 27.4847C210.92 27.4847 211.112 27.5601 211.263 27.711C211.422 27.8534 211.502 28.0336 211.502 28.2515C211.502 28.4777 211.427 28.6705 211.276 28.8297C211.125 28.9805 210.928 29.0559 210.685 29.0559ZM217.15 30.2752C217.694 30.2752 218.172 30.3799 218.582 30.5894C219.001 30.7989 219.328 31.1174 219.563 31.5447C219.798 31.9721 219.915 32.5126 219.915 33.1662V37H218.708V33.3045C218.708 32.6593 218.549 32.1732 218.231 31.8464C217.92 31.5196 217.481 31.3562 216.911 31.3562C216.483 31.3562 216.11 31.44 215.792 31.6076C215.474 31.7752 215.226 32.0224 215.05 32.3492C214.883 32.676 214.799 33.0824 214.799 33.5685V37H213.592V30.338H214.749V32.1355L214.56 31.6579C214.778 31.2221 215.113 30.8827 215.566 30.6397C216.018 30.3967 216.546 30.2752 217.15 30.2752ZM225.064 39.5139C224.452 39.5139 223.858 39.426 223.279 39.25C222.709 39.0824 222.244 38.8394 221.884 38.5209L222.462 37.5908C222.772 37.8589 223.154 38.0684 223.606 38.2193C224.059 38.3785 224.532 38.4581 225.027 38.4581C225.814 38.4581 226.392 38.2737 226.761 37.905C227.13 37.5363 227.314 36.9749 227.314 36.2207V34.8129L227.44 33.493L227.377 32.1607V30.338H228.521V36.095C228.521 37.2682 228.228 38.1313 227.641 38.6843C227.054 39.2374 226.195 39.5139 225.064 39.5139ZM224.913 36.7235C224.268 36.7235 223.69 36.5894 223.179 36.3212C222.676 36.0447 222.274 35.6634 221.972 35.1774C221.679 34.6914 221.532 34.1299 221.532 33.493C221.532 32.8478 221.679 32.2864 221.972 31.8087C222.274 31.3227 222.676 30.9456 223.179 30.6774C223.69 30.4093 224.268 30.2752 224.913 30.2752C225.483 30.2752 226.003 30.3925 226.472 30.6271C226.941 30.8534 227.314 31.2054 227.591 31.683C227.876 32.1607 228.018 32.764 228.018 33.493C228.018 34.2137 227.876 34.8129 227.591 35.2905C227.314 35.7682 226.941 36.1285 226.472 36.3715C226.003 36.6061 225.483 36.7235 224.913 36.7235ZM225.052 35.6676C225.496 35.6676 225.89 35.5754 226.233 35.3911C226.577 35.2067 226.845 34.9511 227.038 34.6243C227.239 34.2975 227.339 33.9204 227.339 33.493C227.339 33.0657 227.239 32.6886 227.038 32.3618C226.845 32.035 226.577 31.7836 226.233 31.6076C225.89 31.4232 225.496 31.3311 225.052 31.3311C224.608 31.3311 224.209 31.4232 223.858 31.6076C223.514 31.7836 223.242 32.035 223.04 32.3618C222.848 32.6886 222.751 33.0657 222.751 33.493C222.751 33.9204 222.848 34.2975 223.04 34.6243C223.242 34.9511 223.514 35.2067 223.858 35.3911C224.209 35.5754 224.608 35.6676 225.052 35.6676ZM230.889 34.2221L230.663 28.2012H232.084L231.845 34.2221H230.889ZM231.38 37.0754C231.145 37.0754 230.948 36.9958 230.789 36.8366C230.63 36.6774 230.55 36.4888 230.55 36.271C230.55 36.0363 230.63 35.8436 230.789 35.6927C230.948 35.5419 231.145 35.4665 231.38 35.4665C231.614 35.4665 231.807 35.5419 231.958 35.6927C232.109 35.8436 232.184 36.0363 232.184 36.271C232.184 36.4888 232.109 36.6774 231.958 36.8366C231.807 36.9958 231.614 37.0754 231.38 37.0754Z" fill="#2C2B2B"/>
<path d="M17.575 19.2167L10.5167 31C10.3711 31.252 10.2941 31.5377 10.2933 31.8288C10.2925 32.1198 10.3679 32.4059 10.512 32.6588C10.6561 32.9116 10.8639 33.1223 11.1148 33.2699C11.3656 33.4174 11.6507 33.4968 11.9417 33.5H26.0583C26.3493 33.4968 26.6344 33.4174 26.8852 33.2699C27.1361 33.1223 27.3439 32.9116 27.488 32.6588C27.6321 32.4059 27.7075 32.1198 27.7067 31.8288C27.7059 31.5377 27.6289 31.252 27.4833 31L20.425 19.2167C20.2764 18.9717 20.0673 18.7693 19.8177 18.6287C19.5681 18.4882 19.2864 18.4144 19 18.4144C18.7136 18.4144 18.4319 18.4882 18.1823 18.6287C17.9327 18.7693 17.7236 18.9717 17.575 19.2167Z" stroke="#7E96FF" stroke-width="2" stroke-linecap="round" stroke-linejoin="round"/>
<path d="M19 23.5V26.8333" stroke="#7E96FF" stroke-width="2" stroke-linecap="round" stroke-linejoin="round"/>
<path d="M19 30.1667H19.0083" stroke="#7E96FF" stroke-width="2" stroke-linecap="round" stroke-linejoin="round"/>
</g>
<defs>
<filter id="filter0_b_1_199" x="-40.7122" y="-40.3987" width="410.175" height="131.424" filterUnits="userSpaceOnUse" color-interpolation-filters="sRGB">
<feFlood flood-opacity="0" result="BackgroundImageFix"/>
<feGaussianBlur in="BackgroundImageFix" stdDeviation="20.3561"/>
<feComposite in2="SourceAlpha" operator="in" result="effect1_backgroundBlur_1_199"/>
<feBlend mode="normal" in="SourceGraphic" in2="effect1_backgroundBlur_1_199" result="shape"/>
</filter>
<linearGradient id="paint0_linear_1_199" x1="19.3383" y1="29.3833" x2="251.402" y2="31.1651" gradientUnits="userSpaceOnUse">
<stop stop-color="#819DFF"/>
<stop offset="1" stop-color="#101010" stop-opacity="0"/>
</linearGradient>
</defs>
</svg>
