<svg width="318" height="29" viewBox="0 0 318 29" fill="none" xmlns="http://www.w3.org/2000/svg">
<path d="M23.8419 11.6616C23.8419 11.3909 23.7343 11.1313 23.5429 10.9399C23.3515 10.7484 23.0919 10.6409 22.8212 10.6409C22.5505 10.6409 22.2908 10.7484 22.0994 10.9399C21.908 11.1313 21.8005 11.3909 21.8005 11.6616H23.8419ZM4.78874 11.6616C4.78874 11.3909 4.6812 11.1313 4.48978 10.9399C4.29837 10.7484 4.03875 10.6409 3.76804 10.6409C3.49733 10.6409 3.23771 10.7484 3.04629 10.9399C2.85487 11.1313 2.74734 11.3909 2.74734 11.6616H4.78874ZM24.8217 15.1048C24.9152 15.2051 25.0279 15.2855 25.1531 15.3413C25.2783 15.3971 25.4134 15.4271 25.5505 15.4295C25.6875 15.4319 25.8237 15.4067 25.9508 15.3554C26.0779 15.304 26.1933 15.2276 26.2902 15.1307C26.3872 15.0338 26.4636 14.9183 26.5149 14.7912C26.5662 14.6641 26.5915 14.528 26.589 14.3909C26.5866 14.2539 26.5566 14.1187 26.5008 13.9935C26.445 13.8683 26.3646 13.7556 26.2643 13.6622L24.8217 15.1048ZM13.2946 2.13504L14.0159 1.41374C13.8245 1.2226 13.5651 1.11523 13.2946 1.11523C13.0241 1.11523 12.7647 1.2226 12.5733 1.41374L13.2946 2.13504ZM0.324867 13.6622C0.224584 13.7556 0.14415 13.8683 0.0883622 13.9935C0.0325747 14.1187 0.00257694 14.2539 0.00015885 14.3909C-0.00225924 14.528 0.0229516 14.6641 0.0742876 14.7912C0.125623 14.9183 0.202033 15.0338 0.298957 15.1307C0.395881 15.2276 0.511335 15.304 0.63843 15.3554C0.765526 15.4067 0.901659 15.4319 1.03871 15.4295C1.17576 15.4271 1.31092 15.3971 1.43612 15.3413C1.56133 15.2855 1.67402 15.2051 1.76746 15.1048L0.324867 13.6622ZM6.48991 27.6526H20.0993V25.6112H6.48991V27.6526ZM23.8419 23.91V11.6616H21.8005V23.91H23.8419ZM4.78874 23.91V11.6616H2.74734V23.91H4.78874ZM26.2643 13.6622L14.0159 1.41374L12.5733 2.85634L24.8217 15.1048L26.2643 13.6622ZM12.5733 1.41374L0.324867 13.6622L1.76746 15.1048L14.0159 2.85634L12.5733 1.41374ZM20.0993 27.6526C21.0919 27.6526 22.0438 27.2583 22.7457 26.5564C23.4476 25.8546 23.8419 24.9026 23.8419 23.91H21.8005C21.8005 24.8491 21.0383 25.6112 20.0993 25.6112V27.6526ZM6.48991 25.6112C5.55087 25.6112 4.78874 24.8491 4.78874 23.91H2.74734C2.74734 24.9026 3.14164 25.8546 3.84351 26.5564C4.54538 27.2583 5.49732 27.6526 6.48991 27.6526V25.6112Z" fill="#7F7F7F"/>
<path d="M295.225 22.5494C295.225 21.1056 295.798 19.721 296.819 18.7001C297.84 17.6792 299.225 17.1057 300.669 17.1057H311.556C313 17.1057 314.385 17.6792 315.405 18.7001C316.426 19.721 317 21.1056 317 22.5494C317 23.2713 316.713 23.9636 316.203 24.4741C315.692 24.9845 315 25.2713 314.278 25.2713H297.947C297.225 25.2713 296.533 24.9845 296.022 24.4741C295.512 23.9636 295.225 23.2713 295.225 22.5494Z" stroke="#7F7F7F" stroke-width="2" stroke-linejoin="round"/>
<path d="M306.112 11.6617C308.367 11.6617 310.195 9.83372 310.195 7.57884C310.195 5.32397 308.367 3.49603 306.112 3.49603C303.857 3.49603 302.029 5.32397 302.029 7.57884C302.029 9.83372 303.857 11.6617 306.112 11.6617Z" stroke="#7F7F7F" stroke-width="2"/>
<path fill-rule="evenodd" clip-rule="evenodd" d="M231.678 4.14024C232.041 2.35741 233.628 1.09583 235.445 1.09583H239.892C241.709 1.09583 243.295 2.35741 243.659 4.14024C243.699 4.33656 243.805 4.51364 243.958 4.643C244.111 4.77235 244.303 4.84645 244.503 4.85337H244.548C246.457 4.93775 247.924 5.17183 249.149 5.97615C249.921 6.48242 250.585 7.13294 251.102 7.89371C251.746 8.8382 252.029 9.92422 252.165 11.2362C252.298 12.5195 252.298 14.1268 252.298 16.1628V16.2784C252.298 18.3144 252.298 19.923 252.165 21.205C252.029 22.517 251.746 23.603 251.102 24.5489C250.583 25.3101 249.92 25.9616 249.149 26.4664C248.193 27.0938 247.094 27.3714 245.763 27.5035C244.459 27.6341 242.825 27.6341 240.748 27.6341H234.589C232.512 27.6341 230.877 27.6341 229.574 27.5035C228.243 27.3714 227.144 27.0952 226.188 26.4664C225.417 25.9612 224.753 25.3092 224.235 24.5475C223.591 23.603 223.308 22.517 223.172 21.205C223.038 19.923 223.038 18.3144 223.038 16.2784V16.1628C223.038 14.1268 223.038 12.5195 223.172 11.2362C223.308 9.92422 223.591 8.8382 224.235 7.89371C224.753 7.13201 225.417 6.47996 226.188 5.97479C227.412 5.17183 228.879 4.93775 230.789 4.85473L230.812 4.85337H230.834C231.034 4.84645 231.226 4.77235 231.379 4.643C231.532 4.51364 231.637 4.33656 231.678 4.14024ZM235.445 3.13723C234.574 3.13723 233.843 3.74013 233.678 4.54716C233.413 5.85366 232.253 6.88253 230.858 6.89478C229.024 6.97644 228.041 7.20099 227.306 7.68276C226.76 8.04099 226.29 8.50292 225.922 9.04234C225.547 9.59352 225.321 10.2998 225.201 11.4471C225.081 12.6121 225.08 14.1146 225.08 16.2213C225.08 18.328 225.08 19.8291 225.202 20.9941C225.321 22.1414 225.547 22.8477 225.924 23.4002C226.288 23.9364 226.758 24.3992 227.308 24.7598C227.875 25.1313 228.602 25.3559 229.776 25.4729C230.966 25.5913 232.498 25.5927 234.644 25.5927H240.692C242.837 25.5927 244.37 25.5927 245.56 25.4729C246.735 25.3559 247.462 25.1327 248.029 24.7598C248.579 24.3992 249.05 23.9364 249.415 23.3989C249.79 22.8477 250.016 22.1414 250.136 20.9941C250.256 19.8291 250.257 18.3267 250.257 16.2213C250.257 14.1146 250.257 12.6121 250.135 11.4471C250.016 10.2998 249.79 9.59352 249.413 9.04234C249.046 8.5022 248.575 8.03975 248.029 7.6814C247.297 7.20099 246.314 6.97644 244.477 6.89478C243.084 6.88117 241.924 5.85502 241.659 4.54716C241.572 4.14469 241.348 3.78462 241.026 3.52774C240.705 3.27086 240.304 3.13293 239.892 3.13723H235.445ZM237.668 12.6638C236.856 12.6638 236.077 12.9864 235.503 13.5607C234.929 14.1349 234.606 14.9138 234.606 15.7259C234.606 16.538 234.929 17.3169 235.503 17.8911C236.077 18.4654 236.856 18.788 237.668 18.788C238.481 18.788 239.259 18.4654 239.834 17.8911C240.408 17.3169 240.731 16.538 240.731 15.7259C240.731 14.9138 240.408 14.1349 239.834 13.5607C239.259 12.9864 238.481 12.6638 237.668 12.6638ZM232.565 15.7259C232.565 14.3724 233.103 13.0743 234.06 12.1172C235.017 11.1601 236.315 10.6224 237.668 10.6224C239.022 10.6224 240.32 11.1601 241.277 12.1172C242.234 13.0743 242.772 14.3724 242.772 15.7259C242.772 17.0794 242.234 18.3775 241.277 19.3346C240.32 20.2917 239.022 20.8294 237.668 20.8294C236.315 20.8294 235.017 20.2917 234.06 19.3346C233.103 18.3775 232.565 17.0794 232.565 15.7259ZM244.813 11.6431C244.813 11.3724 244.921 11.1128 245.112 10.9213C245.304 10.7299 245.563 10.6224 245.834 10.6224H247.195C247.466 10.6224 247.725 10.7299 247.917 10.9213C248.108 11.1128 248.216 11.3724 248.216 11.6431C248.216 11.9138 248.108 12.1734 247.917 12.3648C247.725 12.5563 247.466 12.6638 247.195 12.6638H245.834C245.563 12.6638 245.304 12.5563 245.112 12.3648C244.921 12.1734 244.813 11.9138 244.813 11.6431Z" fill="#7F7F7F"/>
<path d="M92.0017 12.6638V14.7052C92.0017 21.1207 92.0017 24.3284 90.0079 26.3208C88.0168 28.3146 84.8078 28.3146 78.3923 28.3146C71.9768 28.3146 68.7691 28.3146 66.7753 26.3208C64.7829 24.3297 64.7829 21.1207 64.7829 14.7052C64.7829 8.28974 64.7829 5.08201 66.7753 3.08824C68.7705 1.09583 71.9768 1.09583 78.3923 1.09583H80.4337" stroke="#829DFF" stroke-width="1.38821" stroke-linecap="round"/>
<path d="M71.5877 17.4263L74.0333 14.4921C75.0023 13.3285 75.4868 12.7474 76.1237 12.7474C76.762 12.7474 77.2465 13.3285 78.2154 14.4921L78.5693 14.9167C79.5383 16.0803 80.0228 16.6614 80.661 16.6614C81.298 16.6614 81.7825 16.0803 82.7515 14.9167L85.1971 11.9825" stroke="#829DFF" stroke-width="1.38821" stroke-linecap="round"/>
<path d="M87.919 9.26127C90.1738 9.26127 92.0018 7.43333 92.0018 5.17845C92.0018 2.92358 90.1738 1.09564 87.919 1.09564C85.6641 1.09564 83.8362 2.92358 83.8362 5.17845C83.8362 7.43333 85.6641 9.26127 87.919 9.26127Z" stroke="#829DFF" stroke-width="1.38821"/>
</svg>
